<svg xmlns="http://www.w3.org/2000/svg" xml:space="preserve" width="223.045" height="285.133" style="shape-rendering:geometricPrecision;text-rendering:geometricPrecision;image-rendering:optimizeQuality;fill-rule:evenodd;clip-rule:evenodd" viewBox="0 0 7623.79 9745.98"><path fill="#fefefe" d="M3413.77 5461.04c112.52 422.53-103.13 1330.66-341.18 1584.34-327.67 349.19-477.54 384.66-565.14 640.39-166-58.26-328.55-144-485-261.29-214.22-186.71-385.1-391.72-518.17-609.82 29.97-34.56 56.16-73.91 77.67-119.06 133.63-280.39 515.1-827.62 777.16-986.66 242.44-147.16 412.67-296.43 640.61-433.19 36.66 35.04 76.39 68.46 120.17 99.63 105.86 40.38 202.42 69.75 293.89 85.66zm250.7-1600.77c-1.28 22.9-2.96 39.93-7.76 62.49-3.11 335.69-32.05 604.25-57 936.96 326.61.27 251.9 71.78 265.06-259.99 9.21-231.99 20.06-442.9 54.04-672.84-56.34 5.31-92.41 23.86-151.17 12.75-47.64-9.02-58.77-16.2-110.93-16.88-95.65-6.2-186-9.4-281.75-10.15 4.87-82.95 15.22-145.05 33.25-225.82 98.01 1.76 193.28 5.96 291.07 11.63-20.18 64.67-30.53 92.06-34.8 161.86zm254.61 65.9c14.21-58.81 30.51-102.6 37.05-164.49 2.3-23.62 4.11-46.05 7.83-69.59 100.78-.97 200.43-1.51 301.16 3.41-1.95 92.69-11.17 143.64-38.95 232.15-102.52-3.75-204.55-2.96-307.09-1.47zm44.78-234.09c-46.83 1.15-61.54-.41-107.5-7.39-69.11-10.49-90.37 1.69-154.21 12.12 38.89-171.22 38.67-336.1 62.2-508.83 100.6-13.8 161.22-9.06 260.81 4.99-34.21 176.46-44.36 322.27-61.31 499.11zM2812.73 5032.14c-41.4 37.64-79.71 71.31-208.97 137.8-246.86 127-362.08 232.2-569.08 347.76-198.18 36.81-223.62 45.36-419.61 45.36-81.09 0-276.12-17.49-487.33-31.83-18.98-429.09 48.79-870.56 178.52-1299.15 226.19-1.28 415.89-105.92 644.44-149.52 327.99-62.58 497.06 58.11 755.89 108.39-52.27 299.61-27.94 594.42 106.13 841.2zm-63.69-1028.67c-103.81-28.5-204.94-44.98-327.5-62.11-240.17-33.56-369.89-214.77-501.77-403.03-60.98-87.05-143.6-162.05-237.7-218.4 119.77-228.75 254.1-447.06 398.35-649.92 39.83-56.02 84.24-116.33 132.71-179.85 249.15 88.38 591.63 127 742.45 239.12 239.2 177.82 231.57 209.48 308.19 319.55-230.44 267.85-419.09 608.27-514.72 954.65zm646.52-1095.36c-72.34-101.53-122.56-192.85-259.65-338.62l-73.31-106.66c-194.13-341.3-90.06-598.29-135.04-789.86 358.3-357.97 773.95-699.65 1196.03-906.91 1.59 3.1 3.17 6.19 4.66 9.26 112.22 229.91 111.19 736.48 74.46 996.41-37.43 264.9-18.07 511.86-74.11 744.71-244.47 17.78-503.08 166.83-733.04 391.67m1095.54-303.1c-.05-6.29-.08-12.6-.04-18.93 3.2-602.16-70.11-1075.53 160.54-1639.18 40.55-99.09 63.25-234.02 62.49-370.96 358.62-47.88 704.39 44.65 1004.78 353.54 210.82 216.79 326.92 474.13 423.51 755.65 11.99 41 23.51 82.16 34.61 123.45-7.54 10.99-15.08 22.12-22.5 33.58-834 1287.46-602.39 594.45-1347.57 1154.77-57.18-122.95-135.05-238.23-236.11-342.14L4491.1 2605zm412.7 690.33c223.16-123.41 486.46-304.18 561.84-361.94 201.76-154.62 543.56-155.8 887.88-140.12 46.46 498.36 30.05 1003.1-51.82 1496.06-227.1 109.55-376.68 291.22-992.92 291.22-526.82 0-449.36 29.84-607.06-61.58 192.09-384.75 281.64-825.83 202.07-1223.65zm-313.08 1421.74c631.2 354.91 577.73 587.51 913.59 1158.9 39.53 67.25 95.65 133.62 163.74 196.7-102.64 176.48-216.54 347.25-342.12 510.94-237.57 279.64-532.32 542.76-858.48 750.98-239.25-392.64-619.62-643.58-679.03-1175.28-29.96-268.09-97.81-437.37-99.2-695.47 135.23-23.8 268.72-87.9 417.17-202.14 184.14-141.72 350.21-330.19 484.33-544.64zM2497.16 9148.11c77.19 217.9 207.21 402.27 414.22 488.4 510.36 212.37 1335.99 134.28 1555.54-399.38 60.89-148 106.24-265.66 139.28-369.38C5488 8383.12 6062.45 7459.4 6519.46 6493.88c243.85 47.35 476.9 30.69 634.36-84.95 730.59-536.57 506.2-1660.61 25.27-2052.57 73.89-531.46 89.56-1073.11 41.29-1588.81 129.86-42.7 217.9-122.17 237.86-264.52 89.28-636.75-207.59-1055.61-577.37-1097.77C6446.53 434.03 5651.69-134.55 4580.45 107.5c-83.84-100.51-210.48-143.16-389.33-72.64-249.6 98.43-311.88 208.86-294.07 322.37l-4.97 2.42c-539.3 330.68-964.03 658.91-1362.27 1102.76-342.28 48.81-772.02 357.83-604.93 795.05-207.81 314.96-379.95 624.51-542.67 956.88-20.17-2.53-40.37-4.19-60.58-4.88-253.42-8.69-556.34 214.85-564.39 472.11-5.81 185.85 66.56 358.25 208.92 457.51l-4.07 9.43c-187.29 448.06-332.33 898.36-419.74 1369.88-65.9 5.76-115.01 16.39-138.15 33.87C138.5 5753-93.67 6319.42 38 6658.02c76.08 195.65 275.89 394.86 494.25 448.79 214.59 1021.99 889.46 1808.23 1964.91 2041.32z"/></svg>
