<?xml version="1.0" encoding="UTF-8"?>
<!DOCTYPE svg PUBLIC "-//W3C//DTD SVG 1.1//EN" "http://www.w3.org/Graphics/SVG/1.1/DTD/svg11.dtd">
<!-- Creator: CorelDRAW -->
<svg xmlns="http://www.w3.org/2000/svg" xml:space="preserve" width="64.94mm" height="68.8133mm" version="1.1" style="shape-rendering:geometricPrecision; text-rendering:geometricPrecision; image-rendering:optimizeQuality; fill-rule:evenodd; clip-rule:evenodd"
viewBox="0 0 11961.66 12675.11"
 xmlns:xlink="http://www.w3.org/1999/xlink"
 xmlns:xodm="http://www.corel.com/coreldraw/odm/2003">
 <defs>
  <style type="text/css">
   <![CDATA[
    .str0 {stroke:#FFFFFF;stroke-width:736.78;stroke-miterlimit:22.9256}
    .str1 {stroke:#FFFFFF;stroke-width:36.84;stroke-miterlimit:22.9256}
    .fil0 {fill:none}
    .fil1 {fill:#FFFFFF}
   ]]>
  </style>
 </defs>
 <g id="Vrstva_x0020_1">
  <metadata id="CorelCorpID_0Corel-Layer"/>
  <path class="fil0 str0" d="M9849.82 5491.02c-161.47,-1075.83 -783.25,-3057.85 -1689.39,-3737.66 -3437.26,-2046.49 -6620.89,1514.81 -6838.54,4931.51 -96.22,2898.17 123.21,3789.16 2928.93,4795.96 1445.47,518.75 2516.98,-27.13 3730.64,-758.79 979.07,-592.85 1220.06,-1296.5 1525.16,-2398.83 112.54,-406.59 177.58,-785.21 257.54,-1196.04 124.77,-602.15 158.48,-1024 85.65,-1636.14z"/>
  <path class="fil1" d="M5324.86 8134.19c7.31,2525.17 -2161.19,2281.23 -1106.32,4108.59 478.82,829.47 3699.66,675.87 2062.7,-2352.6 -256.99,-475.45 -421.57,-1198.28 -556.1,-1755.99l-400.28 0z"/>
  <path class="fil1" d="M4720.25 6248.63c-688.6,-547.43 -434.52,67.34 -1709.72,-1222.56 -448.39,-453.56 -2807.56,-1367.76 -2807.56,538.75 0,565.04 1033.93,1373.51 2342.3,877.42 1017.28,-385.72 1313.54,-164.47 2063.43,-91.77l111.55 -101.84z"/>
  <path class="fil1 str1" d="M4193.89 6688.18c25.86,2230.59 2126.3,2215.85 2795.26,-149.27 230.8,-815.97 231.63,-2329.08 -962.57,-2313.22 -1149.18,15.27 -1755.48,1471.15 -1832.69,2462.49zm1485.92 336.49c18.94,-276.83 53.77,-543.28 97.22,-805.4 100.57,-0.83 182.61,-1.18 232.64,-0.07 565.52,12.53 970.42,162.33 909.78,-418.33 -13.89,-133.01 -612.06,-137.78 -1041.31,-126.32 73.13,-364.73 153.25,-729.29 220.04,-1110.59 -688.87,-26.32 -508.27,30.1 -665.76,849.64 -8.99,46.73 -27.91,144.8 -51.7,276.68 -571.91,-5.69 -890.77,-184.91 -845.99,500.94 94.9,27.83 426.6,32.68 756.82,31.76 -118.57,772.28 -226.34,1804.2 40.56,1846.23 679.7,107.02 329.71,-264.98 343.52,-863.91l4.18 -180.62z"/>
  <path class="fil1" d="M11517.23 9918.53c472.31,-163.57 516.85,-1395.67 369.94,-1859.68 -448.87,-1154.46 -1555.31,-1256.91 -2668.17,-1376.86 -856.84,-92.3 -1011.44,-133.28 -1850.69,-39.05 -363.23,40.82 -697,-98.91 -1037.43,-210.98 -66.37,169.22 817.57,569.86 879.46,609.69 2023.3,1302.59 993.44,3964.29 4306.88,2876.88z"/>
  <path class="fil1" d="M6647.31 5374.64c1870.17,-561.04 1495.78,-366.4 3336.76,-431.59 1294.1,-45.83 2051.37,-2772.71 -1178.17,-2618.03 -1032.69,49.47 163.09,1532.47 -1951.37,2372.92 -292.74,116.36 -189.39,671.36 -207.22,676.7z"/>
  <path class="fil1" d="M5953.96 4368.24c252.24,-764.04 -286.57,-966.4 1221.66,-2474.67 1040.34,-1040.37 -1794.58,-3443.79 -1794.58,-424.37 0,780.84 383.66,1056.36 383.66,2680.91 0,40.3 6.52,125.25 13.7,218.12l175.56 0z"/>
  <path class="fil1" d="M5643.79 6107.34c-315.38,92.65 -176.88,-574.01 129.05,-282.7 115.05,109.54 -36.43,227.98 -129.05,282.7z"/>
  <path class="fil1" d="M5113.97 4963.89c-2343.17,-416.3 297.51,-2783.56 -2620.99,-3826.39 -463.44,-165.59 -884.69,2594.38 1011.22,3169.82 457.87,138.96 1821.88,1577.86 1609.78,656.57z"/>
  <path class="fil1" d="M4823.86 7077.49c-1102.26,316.78 -1277.32,559.48 -2658.88,559.48 -853.71,0 -2566.78,-639.73 -2079.24,1133.17 341.06,1240.28 3545.45,2121.21 4185.75,-905.82 74.95,-354.37 916.08,-615.43 552.37,-786.83z"/>
 </g>
</svg>
